<?xml version="1.0" standalone="no"?>
<!DOCTYPE svg PUBLIC "-//W3C//DTD SVG 20010904//EN"
 "http://www.w3.org/TR/2001/REC-SVG-20010904/DTD/svg10.dtd">
<svg version="1.0" xmlns="http://www.w3.org/2000/svg"
 width="800.000000pt" height="290.000000pt" viewBox="0 0 800.000000 290.000000"
 preserveAspectRatio="xMidYMid meet">

<g transform="translate(0.000000,290.000000) scale(0.100000,-0.100000)"
fill="#000000" stroke="none">
<path d="M0 1450 l0 -1450 4000 0 4000 0 0 1450 0 1450 -4000 0 -4000 0 0
-1450z m2470 1038 c0 -6 -67 -149 -149 -317 -81 -168 -166 -344 -187 -391 -21
-47 -98 -204 -171 -350 -144 -289 -275 -560 -330 -683 -38 -85 -90 -178 -105
-188 -5 -3 -26 -5 -46 -4 -20 1 -80 3 -133 4 l-96 1 -51 78 c-55 85 -285 542
-272 542 4 0 11 -8 14 -17 9 -26 33 -65 44 -72 5 -3 13 -19 19 -36 l9 -29 15
32 c7 18 20 32 26 32 19 0 16 31 -5 46 -10 9 -13 17 -7 21 15 12 45 69 45 87
0 9 5 16 10 16 6 0 15 10 19 23 7 17 4 26 -11 38 -22 17 -17 39 8 39 8 0 14 7
14 15 0 9 7 18 15 21 26 10 16 24 -16 24 -26 0 -29 3 -20 14 7 8 20 12 30 9
15 -4 17 0 13 26 -2 17 -8 31 -13 31 -5 0 -9 10 -9 23 0 12 -8 36 -18 52 -9
17 -23 48 -31 70 -8 22 -17 42 -20 45 -9 8 -61 114 -61 125 1 31 294 -551 426
-845 15 -33 32 -60 38 -60 6 0 22 28 35 63 13 34 76 166 140 292 64 127 153
309 199 405 46 96 127 265 181 375 54 110 97 203 94 208 -2 4 -44 7 -93 7
l-88 0 -26 -45 c-15 -25 -104 -197 -198 -382 -94 -186 -188 -371 -208 -411
-21 -40 -41 -96 -45 -124 -9 -64 -22 -53 -65 57 -17 44 -40 94 -51 111 -26 42
-24 53 16 126 20 35 53 99 74 143 21 44 93 192 160 329 68 136 142 291 166
342 l44 94 336 0 c248 0 335 -3 335 -12z m132 -1070 c2 -302 0 -554 -3 -559
-3 -6 -48 -8 -100 -7 l-94 3 -1 45 c0 25 -2 275 -3 555 l-2 510 88 5 c48 3 94
3 100 1 10 -2 13 -127 15 -553z m1179 548 c2 -2 3 -43 1 -90 l-3 -86 -270 0
-270 0 -57 -29 c-139 -70 -203 -195 -189 -366 13 -147 69 -251 171 -317 l59
-38 172 0 c143 0 175 3 185 15 10 12 11 43 7 124 -4 59 -9 115 -12 123 -8 20
-68 28 -201 28 -84 0 -104 3 -104 14 0 33 32 151 43 158 15 9 147 10 335 1
l142 -6 0 -307 c0 -262 -2 -309 -15 -320 -21 -18 -474 -27 -571 -11 -39 6 -95
22 -126 35 -109 48 -216 174 -275 323 -24 62 -26 81 -27 213 -1 136 1 150 27
222 48 129 170 246 306 294 63 23 78 24 367 24 165 0 303 -2 305 -4z m439
-556 l0 -560 -100 0 -100 0 -2 278 c-2 367 -2 625 0 745 l2 97 100 0 100 0 0
-560z m445 108 c0 -412 1 -449 17 -465 16 -16 43 -17 313 -14 l295 2 0 -83 c0
-46 -4 -89 -8 -96 -7 -9 -95 -12 -408 -10 l-399 3 -10 165 c-5 91 -9 287 -8
435 1 149 2 325 3 393 l0 123 103 -3 102 -3 0 -447z m1603 365 l-4 -88 -301
-3 -301 -2 -4 -133 c-2 -72 -2 -135 0 -139 2 -5 131 -8 288 -8 l284 0 0 -89 0
-88 -167 -7 c-93 -5 -217 -7 -278 -7 -60 1 -115 -2 -122 -6 -8 -6 -11 -48 -10
-136 1 -70 2 -128 2 -129 0 -1 140 -5 310 -8 l310 -5 3 -70 c2 -38 1 -80 -3
-92 l-5 -22 -404 -1 c-283 0 -407 3 -411 10 -5 8 -10 1071 -5 1108 0 1 185 2
411 2 l411 0 -4 -87z m252 73 c-6 -8 -11 -23 -10 -33 4 -30 0 -43 -10 -43 -5
0 -10 20 -10 45 0 39 3 45 21 45 18 0 19 -3 9 -14z m585 4 c8 -13 -25 -13 -45
0 -12 8 -9 10 12 10 15 0 30 -4 33 -10z m147 -54 c43 -24 96 -63 119 -87 142
-147 182 -504 80 -707 -37 -74 -127 -162 -204 -202 -52 -27 -177 -64 -185 -55
-2 2 3 13 10 24 10 17 19 20 41 15 34 -7 36 14 5 56 -28 38 -53 40 -44 4 6
-21 4 -25 -11 -22 -23 4 -31 48 -9 48 9 0 16 8 16 20 0 22 -15 27 -26 8 -5 -7
-12 -5 -22 8 -10 13 -16 15 -19 7 -7 -18 -23 -16 -23 2 0 10 10 15 33 15 104
0 230 99 263 208 25 80 24 245 -1 332 -16 54 -28 75 -76 123 -32 31 -51 57
-43 57 25 0 83 -44 101 -77 10 -18 21 -33 25 -33 4 0 7 -10 5 -22 -1 -17 3
-23 18 -23 11 0 21 6 21 13 3 29 4 32 13 32 5 0 16 -7 25 -15 13 -13 19 -14
38 -3 30 17 39 31 28 42 -6 6 -17 3 -28 -7 -18 -16 -20 -16 -35 0 -8 10 -18
30 -22 44 -5 21 -2 27 19 37 30 14 34 32 7 32 -12 0 -21 9 -25 24 -7 30 -31
40 -50 21 -16 -17 -36 -20 -36 -6 0 5 7 14 15 21 19 15 19 30 2 30 -8 0 -22 9
-32 20 -10 11 -35 25 -57 30 -21 6 -38 15 -38 20 0 18 26 10 102 -34z m-6258
-62 c3 -8 2 -12 -4 -9 -6 3 -10 10 -10 16 0 14 7 11 14 -7z m6332 -55 c3 -6
-5 -23 -20 -37 l-26 -27 0 26 c0 38 30 63 46 38z m-211 -9 c8 -13 -5 -13 -25
0 -13 8 -13 10 2 10 9 0 20 -4 23 -10z m-6035 -396 c0 -8 -4 -12 -10 -9 -5 3
-10 10 -10 16 0 5 5 9 10 9 6 0 10 -7 10 -16z m5964 -490 c7 -19 9 -17 -24
-34 -21 -10 -23 -10 -12 1 6 7 12 21 12 31 0 23 16 24 24 2z"/>
<path d="M1140 1064 c0 -8 5 -12 10 -9 6 3 10 10 10 16 0 5 -4 9 -10 9 -5 0
-10 -7 -10 -16z"/>
<path d="M1095 1020 c-3 -6 1 -13 10 -16 19 -8 30 0 20 15 -8 14 -22 14 -30 1z"/>
<path d="M1050 990 c0 -5 5 -10 10 -10 6 0 10 5 10 10 0 6 -4 10 -10 10 -5 0
-10 -4 -10 -10z"/>
<path d="M7380 1720 c-15 -9 -5 -30 15 -30 18 0 27 27 11 33 -7 3 -19 2 -26
-3z"/>
<path d="M7329 1589 c-25 -25 -23 -72 4 -77 15 -3 17 1 11 22 -5 23 -3 26 20
26 28 0 33 -9 14 -28 -9 -9 -7 -12 10 -12 18 0 22 6 22 30 0 19 -5 30 -14 30
-8 0 -16 7 -20 15 -8 21 -22 19 -47 -6z"/>
<path d="M7430 1500 c0 -5 5 -10 11 -10 5 0 7 5 4 10 -3 6 -8 10 -11 10 -2 0
-4 -4 -4 -10z"/>
<path d="M7332 1488 c-8 -8 -9 -15 0 -25 14 -17 39 2 31 23 -6 17 -15 18 -31
2z"/>
<path d="M7380 1455 c0 -10 7 -15 18 -13 21 4 19 22 -2 26 -10 2 -16 -3 -16
-13z"/>
<path d="M7320 1430 c0 -5 5 -10 10 -10 6 0 8 -11 4 -26 -5 -20 -3 -25 7 -22
8 3 14 10 13 16 -1 7 -2 21 -2 32 -2 20 -32 29 -32 10z"/>
<path d="M7353 1343 c-22 -8 -14 -23 12 -23 18 0 23 4 19 15 -6 16 -11 17 -31
8z"/>
<path d="M7325 1299 c-11 -17 1 -21 15 -4 8 9 8 15 2 15 -6 0 -14 -5 -17 -11z"/>
<path d="M7306 1251 c-4 -7 -5 -15 -2 -18 9 -9 19 4 14 18 -4 11 -6 11 -12 0z"/>
<path d="M7285 1210 c-4 -6 -3 -16 3 -22 6 -6 12 -6 17 2 4 6 3 16 -3 22 -6 6
-12 6 -17 -2z"/>
<path d="M7256 1155 c-4 -12 -1 -16 11 -13 18 3 21 20 5 26 -5 1 -12 -4 -16
-13z"/>
<path d="M7204 1044 c0 -13 4 -24 9 -24 4 0 16 -9 27 -20 l20 -20 0 25 c0 14
-4 25 -8 25 -5 0 -18 9 -29 19 -21 20 -21 20 -19 -5z"/>
<path d="M7122 1032 c-16 -3 -22 -8 -18 -19 3 -8 6 -19 6 -24 0 -17 19 -9 30
12 15 27 10 35 -18 31z"/>
<path d="M7172 997 c-17 -20 -3 -89 17 -85 11 3 15 13 13 33 -1 17 -2 38 -3
48 0 20 -12 22 -27 4z"/>
</g>
</svg>
